<?xml version="1.0" encoding="utf-8"?>
<!-- Generator: Adobe Illustrator 27.5.0, SVG Export Plug-In . SVG Version: 6.00 Build 0)  -->
<svg version="1.1" id="Capa_1" xmlns="http://www.w3.org/2000/svg" xmlns:xlink="http://www.w3.org/1999/xlink" x="0px" y="0px"
	 viewBox="0 0 1080 387.04" style="enable-background:new 0 0 1080 387.04;" xml:space="preserve">
<style type="text/css">
	.st0{fill:#FFFFFF;}
	.st1{fill:#289085;}
	.st2{fill:#DA3B37;}
</style>
<g>
	<path class="st1" d="M157.73,191.61c-0.71-5.13-1.52-10.25-2.09-15.4c-0.64-5.76-1.47-11.53-1.52-17.31
		c-0.19-20.88-0.04-41.77-0.14-62.65c-0.01-2.63,0.59-3.58,3.43-3.56c14.98,0.14,29.96,0.13,44.94,0.01
		c2.66-0.02,3.29,0.84,3.29,3.39c-0.06,87.48-0.06,174.95,0,262.43c0,2.56-0.67,3.4-3.31,3.37c-11.04-0.14-22.07-0.12-33.11,0
		c-2.27,0.02-3.29-0.76-4.01-2.86c-2.64-7.72-5.43-15.39-8.27-23.04c-0.35-0.95-1.31-2.24-2.1-2.32c-0.85-0.09-2.12,0.86-2.69,1.71
		c-10.2,15.17-24.55,23.61-42.53,25.75c-30.93,3.68-56.87-8.15-71.54-40.11c-5.51-12-8.29-24.71-9.59-37.82
		c-2.1-21.31-1.42-42.44,4.32-63.17c4.64-16.79,12.69-31.58,26.62-42.59c9.43-7.45,20.25-11.51,32.21-12.71
		c13.04-1.31,25.73-0.23,37.85,5.1c9.99,4.39,17.93,11.29,24.42,19.99c0.76,1.02,1.93,1.74,2.91,2.6
		C157.13,192.14,157.43,191.87,157.73,191.61z M158.16,264.51c-0.78-8.1-1.3-16.25-2.43-24.3c-1.1-7.84-3.6-15.25-8.34-21.81
		c-8.69-12.02-28.79-15.03-41.21-11.01c-11.51,3.73-17.8,12.5-21.76,23.27c-5.23,14.25-5.5,29.13-4.47,43.98
		c0.49,6.98,1.92,14.04,3.99,20.74c3.57,11.55,10.55,20.42,22.7,24.1c6.33,1.91,12.78,1.81,19.29,0.92
		c13.17-1.82,22.38-8.6,26.88-21.27C156.78,287.94,157.73,276.32,158.16,264.51z"/>
	<path class="st1" d="M746.22,262.45c0.15,18.84-2.52,36.72-10.87,53.35c-12.03,23.95-31.53,38.31-57.66,43.6
		c-18.9,3.82-37.81,3.56-56.26-2.45c-26.56-8.65-44.4-26.63-53.27-52.89c-9.51-28.16-9.46-56.76,0.31-84.82
		c9.99-28.71,30.62-46.23,60.33-52.47c21.47-4.51,42.89-3.96,63.54,4.29c24.79,9.9,40.37,28.36,48.49,53.47
		C744.24,235.06,746.47,247.81,746.22,262.45z M693.97,262.01c-0.15-2.33-0.43-5.47-0.55-8.61c-0.35-8.7-1.77-17.19-4.84-25.36
		c-4.2-11.17-11.66-19.01-23.63-21.33c-5.42-1.05-11.14-1.18-16.67-0.85c-11.69,0.69-21,5.87-26.48,16.53
		c-2.18,4.24-3.9,8.84-5.06,13.46c-3.24,12.91-3.6,26.15-2.23,39.28c0.82,7.84,2.65,15.71,5.14,23.19
		c3.41,10.25,10.41,17.8,21.2,20.42c5.63,1.37,11.66,1.69,17.48,1.51c14.33-0.46,24.2-7.72,29.66-20.97
		C692.8,287.6,693.45,275.23,693.97,262.01z"/>
	<path class="st1" d="M1052.56,261.36c0.1,19.49-2.36,36.82-10.18,53c-12.66,26.17-33.78,41.05-62.3,45.74
		c-18.45,3.03-36.72,2.42-54.43-3.89c-29.62-10.55-46.71-32.31-54.19-62.19c-4.13-16.49-4.49-33.24-2.47-50.08
		c1.86-15.54,6.19-30.24,14.93-43.36c9.7-14.57,22.82-24.93,39.45-30.52c21.94-7.37,44.28-8.22,66.5-1.94
		c30.05,8.49,48.82,28.7,57.85,58.25C1051.38,238.31,1052.8,250.58,1052.56,261.36z M1000.3,261.97c-0.16-2.41-0.42-5.45-0.54-8.49
		c-0.35-8.69-1.75-17.18-4.82-25.34c-3.92-10.46-10.72-18.04-21.8-21.07c-7.91-2.16-15.93-2.3-23.92-0.55
		c-9.57,2.1-16.96,7.36-21.31,16.21c-2.06,4.2-3.76,8.68-4.86,13.22c-2.83,11.63-3.22,23.49-2.51,35.43
		c0.53,8.97,1.79,17.78,4.97,26.21c3.93,10.39,10.52,18.45,21.67,21.16c5.62,1.37,11.65,1.69,17.46,1.51
		c14.32-0.45,24.18-7.71,29.65-20.93C999.16,287.56,999.81,275.1,1000.3,261.97z"/>
	<path class="st1" d="M382.3,309.22c0.09,1.17,0.21,1.94,0.21,2.71c0.01,11.23-0.04,22.46,0.05,33.69c0.02,2.07-0.68,3.19-2.58,4.05
		c-11.81,5.38-24.07,9.22-37.01,10.39c-10.18,0.92-20.42,1.79-30.61,1.64c-17.87-0.27-35.23-3.45-51.08-12.34
		c-21.66-12.14-34.81-30.73-40.1-54.71c-5.48-24.84-4.96-49.71,3.22-73.91c10.8-31.97,33.33-50.43,66.79-55.32
		c15.85-2.32,31.65-1.85,47.06,2.69c28.59,8.42,45.58,27.84,52.46,56.51c2.17,9.05,2.63,18.27,2.67,27.53
		c0.03,6.6-0.11,13.2,0.06,19.8c0.08,2.87-0.91,3.67-3.73,3.66c-38.53-0.08-77.06-0.06-115.59-0.05c-4.2,0-4.35,0.02-3.99,4.01
		c0.96,10.57,3.79,20.46,10.72,28.85c7.75,9.37,17.98,13.85,29.8,14.86c24.2,2.07,47.08-3.22,69.08-13.01
		C380.42,309.94,381.15,309.68,382.3,309.22z M308.04,241.73c11.32,0,22.65-0.07,33.97,0.05c2.49,0.03,3.38-0.79,3.08-3.21
		c-0.29-2.33-0.28-4.71-0.67-7.02c-1.65-9.84-5.63-18.41-13.9-24.48c-7.86-5.77-16.89-7.28-26.33-6.48
		c-9.38,0.8-17.46,4.46-23.44,12.05c-6.14,7.79-8.42,16.95-9.5,26.55c-0.26,2.27,0.96,2.57,2.82,2.56
		C285.39,241.7,296.72,241.73,308.04,241.73z"/>
	<path class="st1" d="M378.3,171.48c1.25-0.07,2.12-0.17,2.99-0.17c15.77-0.01,31.54,0.04,47.3-0.06c2.39-0.02,3.43,0.76,4.19,3.02
		c11.71,34.74,23.61,69.42,35.25,104.18c4.09,12.22,6.7,24.82,7.9,37.69c0.1,1.06,0.56,2.09,0.85,3.13
		c0.31-0.01,0.62-0.02,0.93-0.03c0.27-1.34,0.69-2.66,0.8-4.02c1.35-15.99,5.89-31.2,11.01-46.3
		c10.63-31.37,21.23-62.75,31.75-94.16c0.83-2.49,1.88-3.58,4.73-3.55c15.86,0.16,31.73,0.08,47.6,0.08c0.68,0,1.35,0.07,2.49,0.13
		c-1.55,4.16-2.97,8.09-4.46,11.99c-22.24,58.34-44.51,116.67-66.69,175.03c-0.95,2.49-2.07,3.46-4.85,3.43
		c-15.47-0.15-30.94-0.11-46.41-0.03c-2.2,0.01-3.28-0.65-4.09-2.77c-23.44-61.67-46.96-123.31-70.46-184.96
		C378.85,173.42,378.66,172.67,378.3,171.48z"/>
	<path class="st1" d="M871.5,315.35c0,4.87,0,9.38,0,13.89c0,7.09-0.07,14.19,0.04,21.28c0.03,1.99-0.66,2.99-2.51,3.71
		c-10.92,4.24-22.26,6.25-33.91,7.11c-9.67,0.71-19.27,0.61-28.8-1.19c-22.1-4.17-35.3-17-39.54-39.09c-1.42-7.39-2.24-15-2.3-22.52
		c-0.26-29.56-0.1-59.11-0.11-88.67c0-3.85-0.01-3.87-3.97-3.88c-6.01-0.02-12.03-0.07-18.04,0.02c-2.18,0.03-2.94-0.75-2.89-2.94
		c0.12-5.32,0.11-10.64,0-15.96c-0.04-1.82,0.63-2.87,2.15-3.78c8.03-4.79,16.07-9.59,23.97-14.6c1.51-0.96,2.88-2.68,3.53-4.36
		c4.44-11.46,8.72-22.98,12.94-34.53c0.75-2.05,1.73-2.91,4.02-2.87c8.87,0.14,17.74,0.15,26.61,0c2.7-0.05,3.3,0.9,3.27,3.42
		c-0.12,11.43,0.01,22.86-0.1,34.29c-0.02,2.49,0.83,3.19,3.23,3.18c15.57-0.08,31.15,0.02,46.72-0.1c2.7-0.02,3.59,0.74,3.56,3.48
		c-0.14,10.34-0.17,20.69,0.01,31.03c0.05,3.12-1.1,3.79-3.96,3.76c-15.18-0.11-30.36-0.06-45.54-0.05c-3.97,0-3.98,0.03-3.98,3.88
		c0,29.75-0.01,59.51,0.01,89.26c0.01,13.55,8.13,21.6,21.7,21.83c10.55,0.18,20.69-2.09,30.76-4.84
		C869.3,315.88,870.23,315.67,871.5,315.35z"/>
	<path class="st2" d="M531.95,60.83c5.85,0,11.35-0.06,16.85,0.08c0.65,0.02,1.61,0.99,1.86,1.72c0.91,2.59,1.53,5.28,2.36,7.9
		c0.22,0.68,0.69,1.6,1.24,1.77c0.45,0.14,1.39-0.53,1.78-1.08c6.44-9.07,15.69-12.1,26.25-11.95c3.8,0.05,7.66,0.63,11.37,1.49
		c6.07,1.4,10.95,4.76,14.42,10.04c1.51,2.29,2.81,2.42,4.26,0.39c6.62-9.27,16.17-12.02,26.88-11.94c3.32,0.03,6.71,0.42,9.93,1.21
		c11.66,2.86,18.43,11,19.59,23.34c0.37,3.91,0.57,7.85,0.58,11.78c0.06,17.24,0.03,34.47,0.03,51.71c0,1.17,0,2.35,0,3.83
		c-1.21,0.09-2.25,0.22-3.3,0.22c-5.72,0.02-11.43,0.01-17.15,0.01c-4.06,0-4.06,0-4.06-3.92c-0.01-16.74,0-33.49-0.06-50.23
		c-0.01-2.15-0.23-4.32-0.59-6.45c-0.96-5.69-3.36-10.37-9.53-11.82c-6.9-1.62-14.31,0.82-17.4,6.45
		c-2.02,3.69-3.77,8.04-3.92,12.16c-0.61,16.52-0.54,33.07-0.73,49.6c-0.01,1.26,0,2.52,0,4.21c-3.41,0-6.54,0-9.66,0
		c-3.74,0-7.5-0.14-11.23,0.05c-2.56,0.13-3.4-0.65-3.38-3.3c0.11-15.76,0.11-31.52,0.01-47.28c-0.02-3.62-0.3-7.29-0.95-10.85
		c-1.21-6.59-4.69-10.31-9.83-11.15c-7.56-1.24-14.56,1.27-17.24,7.3c-2.03,4.57-3.54,9.71-3.77,14.67
		c-0.63,13.27-0.45,26.58-0.58,39.87c-0.03,3.42,0,6.85,0,10.48c-8.2,0-16.02,0-24.02,0C531.95,121.05,531.95,91.15,531.95,60.83z"
		/>
	<path class="st2" d="M402.93,150.75c0-1.05,0-2.22,0-3.4c0-16.74,0.1-33.48-0.1-50.22c-0.04-3.57-0.76-7.26-1.92-10.64
		c-1.68-4.91-5.57-7.44-10.81-7.76c-12.63-0.79-19.57,5.2-21.11,18.5c-0.52,4.48-0.68,9.02-0.71,13.54
		c-0.09,12.41-0.12,24.82,0.04,37.22c0.04,2.83-0.89,3.49-3.53,3.43c-6.87-0.16-13.75-0.05-20.81-0.05c0-30.25,0-60.14,0-90.53
		c4.15,0,8.35,0,12.54,0c1.08,0,2.18,0.12,3.25-0.02c2.12-0.29,2.95,0.71,3.37,2.67c0.52,2.39,1.31,4.73,2.07,7.06
		c0.22,0.68,0.76,1.27,1.15,1.9c0.62-0.39,1.43-0.65,1.84-1.2c7.07-9.46,17.06-12.1,28.15-11.97c3.22,0.04,6.5,0.43,9.64,1.18
		c12.16,2.89,20.36,12.5,20.82,25.47c0.57,16.32,0.43,32.68,0.57,49.01c0.04,4.73,0.08,9.46-0.07,14.18
		c-0.02,0.76-0.99,2.14-1.54,2.15c-7.38,0.09-14.76-0.01-22.14-0.08C403.46,151.16,403.3,150.97,402.93,150.75z"/>
	<path class="st2" d="M687.83,67.21c6.33-3.59,12.96-5.67,19.83-6.89c10.46-1.85,20.95-2.17,31.28,0.91
		c13.15,3.92,20.6,13.13,20.8,26.82c0.29,21.07,0.09,42.15,0.08,63.23c0,0.38-0.11,0.75-0.23,1.53c-5.22,0-10.41,0.07-15.58-0.09
		c-0.61-0.02-1.45-1.15-1.75-1.93c-1.46-3.84-2.76-7.74-4.32-12.19c-1,0.96-1.72,1.52-2.28,2.22c-6.6,8.08-15.15,12.07-25.54,11.91
		c-4.2-0.07-8.53-0.15-12.56-1.16c-10.18-2.55-16.93-10.65-17.82-21.08c-0.37-4.27-0.48-8.7,0.23-12.9
		c1.56-9.24,7.74-14.7,16.23-17.88c7.75-2.9,15.86-3.71,24.04-4.08c4.33-0.19,8.66-0.32,12.99-0.38c1.84-0.03,2.77-0.65,2.54-2.61
		c-0.26-2.24-0.22-4.55-0.73-6.73c-1.26-5.41-5.66-8.6-11.78-8.9c-8.56-0.42-16.53,1.97-24.34,5.1c-0.98,0.39-1.98,0.77-3.17,1.23
		C693.09,77.91,690.5,72.65,687.83,67.21z M736.11,114.83c-0.12-0.02-0.23-0.04-0.35-0.06c0-1.18,0.23-2.43-0.08-3.52
		c-0.22-0.77-1.2-1.95-1.78-1.91c-5.88,0.34-11.78,0.64-17.6,1.49c-2.51,0.37-5.12,1.62-7.2,3.14c-6.76,4.92-6.57,16.46,0.13,19.87
		c8.97,4.56,22.12-0.57,25.29-10.06C735.47,120.93,735.6,117.82,736.11,114.83z"/>
	<path class="st2" d="M521.3,111.95c-1.88,0-3.03,0-4.19,0c-17.15,0-34.29,0-51.44,0c-3.41,0-3.5,0.13-2.93,3.57
		c2.27,13.71,11.08,20.34,25.24,19.43c9.04-0.58,17.7-2.43,25.96-6.16c0.44-0.2,0.91-0.3,1.7-0.55c0.12,1.01,0.29,1.83,0.3,2.66
		c0.03,3.15,0.01,6.3,0.01,9.46c0,6.65,0.04,6.76-6.22,8.82c-13.7,4.52-27.66,5.11-41.61,1.68c-16.62-4.09-27.85-17.58-29.73-34.67
		c-1.22-11.11-0.87-22.06,3.36-32.53c6.06-14.97,17.5-23.02,33.46-24.03c6.39-0.4,13.12-0.13,19.28,1.45
		c15.01,3.85,23.38,14.41,25.7,29.45C521.24,97.38,520.95,104.44,521.3,111.95z M463.36,95.69c0.25,0.11,0.51,0.32,0.78,0.32
		c10.74,0.04,21.47,0.05,32.21,0.1c1.74,0.01,1.85-1.02,1.78-2.33c-0.44-8.93-5.82-18.15-19.08-17.38
		C469.74,76.94,462.3,85.94,463.36,95.69z"/>
	<path class="st2" d="M287.16,83.79c-4.4-1.41-8.45-2.93-12.62-4.01c-15.02-3.9-24.16,1.77-27.07,16.9
		c-1.47,7.62-1.28,15.29,0.82,22.81c2.61,9.31,8.76,13.95,18.39,13.87c7.72-0.06,14.98-1.97,21.69-5.85
		c0.84-0.49,1.69-0.96,2.84-1.61c0.1,0.96,0.24,1.67,0.24,2.38c0.02,4.23-0.4,8.52,0.12,12.69c0.58,4.66-1.43,7.08-5.48,8.16
		c-5,1.34-10.04,3.06-15.13,3.37c-6.42,0.39-13.04,0.16-19.37-0.96c-14.51-2.56-23.57-11.55-27.31-25.71
		c-3.46-13.1-3.57-26.31,0.43-39.31c4.87-15.8,17.65-25.68,34.14-26.98c11.13-0.88,21.99,0.05,32.45,4.29
		c2.3,0.93,2.96,1.91,1.92,4.34C291.07,73.23,289.23,78.42,287.16,83.79z"/>
	<path class="st2" d="M303.12,60.83c7.69,0,15.07-0.05,22.43,0.08c0.64,0.01,1.34,1.16,1.84,1.9c0.23,0.34,0.04,0.96,0.04,1.45
		c0,27.86-0.04,55.71,0.06,83.57c0.01,2.9-0.86,3.68-3.66,3.59c-5.8-0.2-11.62-0.05-17.43-0.07c-1.06,0-2.11-0.11-3.3-0.18
		C303.12,121.03,303.12,91.15,303.12,60.83z"/>
	<path class="st2" d="M315.18,25.1c1.58,0.23,3.14,0.39,4.68,0.7c5.66,1.15,8.4,4.69,8.57,10.98c0.17,6.15-2.77,10.76-8.15,11.68
		c-3.31,0.57-6.88,0.56-10.2,0.01c-5.34-0.88-8.23-5.26-8.2-11.34c0.03-6.13,2.93-10.09,8.34-11.26
		C311.85,25.5,313.52,25.35,315.18,25.1z"/>
</g>
</svg>
